# xmcd
#
# Track frame offsets:
#	150
#	12950
#	25830
#	41714
#	52792
#	64305
#	79174
#	91990
#	104745
#	116753
#
# Disc length: 1755 seconds
#
# Revision: 0
# Processed by: cddbd v1.5.2PL0 Copyright (c) Steve Scherf et al.
# Submitted via: dBpowerAMP V4.0
#
DISCID=7f06d90a
DTITLE=Forró Stikepuxy - Resgatando o Amor
DYEAR=2008
DGENRE=Country
TTITLE0=Tá na hora de Você se Decidir
TTITLE1=Se Eu Perder a Cabeça
TTITLE2=Quero te Amar
TTITLE3=Se Vacilar
TTITLE4=Vá Embora
TTITLE5=Ficou em Meu Peito
TTITLE6=Ficar com Você
TTITLE7=Estique e Puxe
TTITLE8=Já te Perdi Demais
TTITLE9=Vai Pagar Por Tudo
EXTD=
EXTT0=
EXTT1=
EXTT2=
EXTT3=
EXTT4=
EXTT5=
EXTT6=
EXTT7=
EXTT8=
EXTT9=
PLAYORDER=
